<svg width="16" height="13" viewBox="0 0 16 13" fill="none" xmlns="http://www.w3.org/2000/svg">
<path d="M16 2C15.405 2.261 14.661 1.916 14 2C14.68 1.594 15.756 0.769 16 0C15.366 0.378 13.746 0.851 13 1C12.398 0.359 11.936 0 11 0C9.184 0 8 1.193 8 3C8 3.26 7.946 3.762 8 4C5.273 3.867 2.621 2.991 1 1C0.717 1.491 1 1.395 1 2C1 3.136 1.128 4.417 2 5C1.473 4.99 1.438 5.241 1 5C1 5.01 1 4.987 1 5C1 6.594 1.509 7.695 3 8C2.733 8.073 2.302 8 2 8C1.79 8 2.199 8.044 2 8C2.425 9.299 3.566 9.969 5 10C3.884 10.873 2.534 12 1 12C0.731 12 0.258 12.033 0 12C1.453 12.937 3.143 13 5 13C11.036 13 14 8.334 14 4C14 3.855 14.007 3.139 14 3C14.651 2.538 15.554 2.664 16 2Z" fill="white"/>
</svg>
